# xmcd CD database file
#
# Track frame offsets:
#	150
#	13217
#	22887
#	32480
#	41835
#	55312
#	65417
#	75482
#	86275
#	97907
#	108742
#	117042
#	128737
#	138690
#	148685
#
# Disc length: 2126 seconds
#
# Revision: 0
# Processed by: cddbd v1.5.2PL0 Copyright (c) Steve Scherf et al.
# Submitted via: CDex 1.95
#
DISCID=c3084c0f
DTITLE=Peggy Lee - Trav'lin' Light
DYEAR=2000
DGENRE=Jazz
TTITLE0=Peggy Lee - I Let A Song Go Out Of My Heart
TTITLE1=Peggy Lee - Aren't You Glad you're You
TTITLE2=Peggy Lee - As Long As I'm Dreaming
TTITLE3=Peggy Lee - Somebody Loves Me
TTITLE4=Peggy Lee - Trav'lin' Light
TTITLE5=Peggy Lee - I Ain't Got Nobody
TTITLE6=Peggy Lee - Oh! You Crazy Moon
TTITLE7=Peggy Lee - Goody Goody
TTITLE8=Peggy Lee - Imagination
TTITLE9=Peggy Lee - You're Driving Me Crazy
TTITLE10=Peggy Lee - Save Your Sorrow For Tomorrow
TTITLE11=Peggy Lee - But Beautiful
TTITLE12=Peggy Lee - Fine and Dandy
TTITLE13=Peggy Lee - When A Woman Loves A Man
TTITLE14=Peggy Lee - T'Ain't So, Honey, T'Ain't So
EXTD=YEAR: 2000
EXTT0=
EXTT1=
EXTT2=
EXTT3=
EXTT4=
EXTT5=
EXTT6=
EXTT7=
EXTT8=
EXTT9=
EXTT10=
EXTT11=
EXTT12=
EXTT13=
EXTT14=
PLAYORDER=
